HIERARCHY
ROOT Hips
{
    OFFSET 0.000000 0.000000 0.000000
    CHANNELS 6 Xposition Yposition Zposition Zrotation Xrotation Yrotation
    JOINT Spine
    {
        OFFSET -0.000000 14.517291 0.000000
        CHANNELS 3 Zrotation Xrotation Yrotation
        JOINT Spine1
        {
            OFFSET -0.000000 37.558300 0.000000
            CHANNELS 3 Zrotation Xrotation Yrotation
            JOINT Neck
            {
                OFFSET -0.000000 37.404057 3.400369
                CHANNELS 3 Zrotation Xrotation Yrotation
                JOINT Head
                {
                    OFFSET -0.000000 24.785618 -3.540803
                    CHANNELS 3 Zrotation Xrotation Yrotation
                    End Site
                    {
                        OFFSET -0.000000 35.408028 0.000000
                    }
                }
            }
            JOINT LeftShoulder
            {
                OFFSET 6.992933 33.973492 -0.192664
                CHANNELS 3 Zrotation Xrotation Yrotation
                JOINT LeftArm
                {
                    OFFSET 21.527611 0.000000 0.000000
                    CHANNELS 3 Zrotation Xrotation Yrotation
                    JOINT LeftForeArm
                    {
                        OFFSET 56.353916 0.000000 0.000000
                        CHANNELS 3 Zrotation Xrotation Yrotation
                        JOINT LeftHand
                        {
                            OFFSET 47.774071 0.000000 0.000000
                            CHANNELS 3 Zrotation Xrotation Yrotation
                            End Site
                            {
                                OFFSET 26.556021 0.000000 0.000000
                            }
                        }
                    }
                }
            }
            JOINT RightShoulder
            {
                OFFSET -7.065357 33.973492 -0.192664
                CHANNELS 3 Zrotation Xrotation Yrotation
                JOINT RightArm
                {
                    OFFSET -21.527611 0.000000 0.000000
                    CHANNELS 3 Zrotation Xrotation Yrotation
                    JOINT RightForeArm
                    {
                        OFFSET -56.353916 0.000000 0.000000
                        CHANNELS 3 Zrotation Xrotation Yrotation
                        JOINT RightHand
                        {
                            OFFSET -47.774071 0.000000 0.000000
                            CHANNELS 3 Zrotation Xrotation Yrotation
                            End Site
                            {
                                OFFSET -26.556021 0.000000 0.000000
                            }
                        }
                    }
                }
            }
        }
    }
    JOINT LeftUpLeg
    {
        OFFSET 17.704014 0.000000 0.000000
        CHANNELS 3 Zrotation Xrotation Yrotation
        JOINT LeftLeg
        {
            OFFSET -0.000000 -81.181816 0.000000
            CHANNELS 3 Zrotation Xrotation Yrotation
            JOINT LeftFoot
            {
                OFFSET -0.000000 -62.821102 0.000000
                CHANNELS 3 Zrotation Xrotation Yrotation
                JOINT LeftToeBase
                {
                    OFFSET -0.000000 -11.507608 26.556021
                    CHANNELS 3 Zrotation Xrotation Yrotation
                    End Site
                    {
                        OFFSET -0.000000 0.000000 7.081605
                    }
                }
            }
        }
    }
    JOINT RightUpLeg
    {
        OFFSET -17.704014 0.000000 0.000000
        CHANNELS 3 Zrotation Xrotation Yrotation
        JOINT RightLeg
        {
            OFFSET -0.000000 -81.181816 0.000000
            CHANNELS 3 Zrotation Xrotation Yrotation
            JOINT RightFoot
            {
                OFFSET -0.000000 -62.821102 0.000000
                CHANNELS 3 Zrotation Xrotation Yrotation
                JOINT RightToeBase
                {
                    OFFSET -0.000000 -11.507608 26.556021
                    CHANNELS 3 Zrotation Xrotation Yrotation
                    End Site
                    {
                        OFFSET -0.000000 0.000000 7.081605
                    }
                }
            }
        }
    }
}
MOTION
Frames:    5
Frame Time:    0.008333
23.616903    158.644440    14.818725    -2.355047    9.810182    -19.585020    4.834372    1.825027    13.671219    -5.629694    -2.770946    4.446491    9.182425    -6.598731    -0.661606    1.040508    5.394421    -2.493657    3.604522    1.502576    -7.629759    -45.250919    14.451621    -36.124985    -3.641850    -23.183485    -125.116798    -1.493062    -29.423935    -4.353106    -15.519611    -2.378440    7.346591    32.307426    -20.255051    79.107155    2.793539    -17.057524    25.689568    11.707561    -13.097963    43.910172    11.718661    -32.700935    -5.005015    -19.793747    36.301380    -9.663005    8.892336    -8.989996    42.482410    0.000000    0.000000    0.000000    -9.946552    8.209802    -21.591055    -0.064632    19.464262    -9.712247    9.935117    -3.011610    -2.957966    0.000000    0.000000    0.000000    
23.476000    158.563202    14.721201    -2.355091    9.832159    -19.578606    4.802249    1.842825    13.649087    -5.586547    -2.782326    4.439673    9.161493    -6.625214    -0.690589    1.053326    5.414386    -2.520567    3.603700    1.486867    -7.672767    -45.222759    14.455483    -36.157459    -3.651084    -23.188107    -125.128098    -1.358874    -29.450544    -4.277574    -15.530562    -2.393396    7.319384    32.260227    -20.225798    79.070503    2.722767    -17.104288    25.576874    11.766044    -13.095416    43.982155    11.805522    -32.813885    -4.976047    -19.852739    36.447590    -9.647552    8.908515    -9.051705    42.507427    0.000000    0.000000    0.000000    -10.312133    8.155340    -21.438854    -0.041881    19.213152    -9.550841    9.945398    -2.590223    -3.123077    0.000000    0.000000    0.000000    
23.326807    158.486343    14.619142    -2.357478    9.828547    -19.551453    4.782608    1.883222    13.615863    -5.582764    -2.794890    4.428545    9.175117    -6.667529    -0.705454    1.055353    5.468906    -2.542641    3.630173    1.456810    -7.708366    -45.208412    14.481281    -36.161957    -3.657523    -23.201488    -125.127098    -1.431125    -29.471182    -4.306840    -15.488239    -2.401868    7.294363    32.141243    -20.203016    79.015877    2.671157    -17.166225    25.490606    11.719584    -13.167974    43.944107    11.880985    -32.926537    -4.995490    -19.695183    36.824768    -10.263700    8.717743    -9.364931    42.687431    0.000000    0.000000    0.000000    -10.658560    8.158690    -21.282219    0.032576    18.878775    -9.441268    9.861549    -2.141282    -3.254818    0.000000    0.000000    0.000000    
23.177048    158.412247    14.491290    -2.348927    9.846773    -19.516685    4.771229    1.925403    13.591272    -5.577047    -2.858076    4.417934    9.127097    -6.663380    -0.754295    1.099698    5.512032    -2.579304    3.614061    1.448166    -7.759834    -45.172264    14.488342    -36.184631    -3.611516    -23.210915    -125.116257    -1.330710    -29.406609    -4.097496    -15.498645    -2.367823    7.289883    32.145813    -20.234070    78.975990    2.672813    -17.162766    25.402582    11.739530    -13.160169    43.897606    11.947157    -33.046700    -5.021214    -19.760962    36.941105    -10.191083    8.710956    -9.410826    42.679146    0.000000    0.000000    0.000000    -10.995859    8.099079    -21.097839    0.111793    18.583769    -9.362473    9.971859    -1.670357    -3.408467    0.000000    0.000000    0.000000    
23.022057    158.342117    14.350508    -2.351381    9.868196    -19.471285    4.774606    1.963446    13.551180    -5.574905    -2.913285    4.402474    9.085635    -6.662916    -0.792453    1.132135    5.534077    -2.607461    3.615594    1.468422    -7.743104    -45.137924    14.560447    -36.234314    -3.641407    -23.244286    -125.094406    -1.368515    -29.482347    -4.321517    -15.498220    -2.357859    7.324226    32.200947    -20.300297    78.938713    2.738549    -17.137262    25.300127    11.732243    -13.144871    43.933510    12.027171    -33.173286    -5.065450    -19.832027    37.049335    -10.121069    8.669351    -9.448014    42.675819    0.000000    0.000000    0.000000    -11.258150    8.045362    -21.057673    0.038622    18.245560    -9.187337    10.114752    -1.180519    -3.378277    0.000000    0.000000    0.000000    
